<svg xmlns="http://www.w3.org/2000/svg" width="56" height="56" viewBox="0 0 56 56">
    <g fill="none" fill-rule="evenodd">
        <path d="M0 0H56V56H0z"/>
        <g fill-rule="nonzero">
            <path fill="#2E5ACF" d="M14.905 54.576l-2.48-4.573c-.26-.481-.833-.714-1.365-.554l-5.058 1.518c-.94.282-1.79-.632-1.413-1.52l8.92-21.068 12.415 5.032-8.92 21.067c-.376.888-1.64.947-2.099.098z" transform="translate(5)"/>
            <path fill="#2548A5" d="M19.395 30.765l-7.892 18.64c.382.033.734.25.923.598l2.48 4.573c.459.849 1.722.79 2.097-.098l8.92-21.067-6.528-2.646z" transform="translate(5)"/>
            <path fill="#2548A5" d="M30.472 54.576l2.48-4.573c.26-.481.833-.714 1.365-.554l5.06 1.518c.938.282 1.788-.632 1.412-1.52L31.87 28.38l-12.416 5.032 8.92 21.067c.376.888 1.64.947 2.099.098z" transform="translate(5)"/>
            <path fill="#2E5ACF" d="M40.79 49.448l-8.922-21.069-6.505 2.637 7.889 18.633c.292-.229.689-.313 1.065-.2l5.058 1.518c.94.282 1.79-.632 1.414-1.52z" transform="translate(5)"/>
            <path fill="#2E5ACF" d="M24.928 1.589c.934.724 2.172.95 3.31.604 1.599-.485 3.33.17 4.177 1.584.603 1.004 1.673 1.654 2.862 1.732 1.67.114 3.042 1.337 3.31 2.954.19 1.15.95 2.134 2.029 2.627 1.516.696 2.343 2.32 1.996 3.924-.247 1.14.099 2.325.922 3.167 1.157 1.184 1.329 2.992.413 4.364-.65.975-.767 2.202-.31 3.278.642 1.514.134 3.26-1.226 4.215-.968.68-1.53 1.784-1.5 2.95.04 1.635-1.08 3.085-2.7 3.496-1.154.292-2.084 1.122-2.489 2.219-.567 1.54-2.145 2.497-3.808 2.306-1.183-.135-2.358.31-3.14 1.19-1.097 1.236-2.922 1.57-4.402.805-1.054-.544-2.313-.544-3.367 0-1.48.766-3.305.431-4.403-.805-.781-.88-1.956-1.325-3.14-1.19-1.663.19-3.24-.766-3.808-2.306-.404-1.097-1.335-1.927-2.488-2.22-1.621-.41-2.74-1.859-2.7-3.497.029-1.164-.532-2.268-1.5-2.948-1.36-.955-1.868-2.702-1.225-4.215.456-1.076.34-2.303-.312-3.278-.915-1.372-.744-3.18.414-4.364.822-.842 1.168-2.028.92-3.167-.346-1.603.481-3.23 1.998-3.924 1.078-.493 1.837-1.477 2.029-2.627.268-1.617 1.64-2.84 3.31-2.953 1.188-.08 2.26-.729 2.862-1.733.847-1.413 2.578-2.07 4.177-1.584 1.138.346 2.376.12 3.31-.604 1.311-1.019 3.168-1.019 4.48 0z" transform="translate(5)"/>
            <path fill="#F3F5F7" d="M22.689 37.672c8.78 0 15.9-6.963 15.9-15.553s-7.12-15.554-15.9-15.554c-8.781 0-15.9 6.964-15.9 15.555 0 8.59 7.119 15.552 15.9 15.552z" transform="translate(5)"/>
            <path fill="#E9EDF1" d="M22.689 6.565c-1.217 0-2.403.134-3.542.387 7.077 1.575 12.359 7.768 12.359 15.167S26.224 35.71 19.147 37.284c1.139.254 2.324.389 3.542.389 8.78 0 15.9-6.964 15.9-15.554s-7.12-15.554-15.9-15.554z" transform="translate(5)"/>
            <path fill="#BFCCF1" d="M23.426 11.642l2.268 6.08c.109.293.39.492.708.503l6.611.232c.732.026 1.031.93.456 1.372l-5.209 3.988c-.251.193-.359.515-.271.816l1.818 6.22c.2.69-.586 1.249-1.193.85l-5.487-3.614c-.265-.175-.612-.175-.877 0l-5.487 3.614c-.607.399-1.394-.16-1.192-.85l1.817-6.22c.088-.3-.02-.623-.271-.816l-5.208-3.988c-.576-.442-.276-1.346.455-1.371l6.61-.233c.32-.01.6-.21.71-.503l2.268-6.08c.25-.672 1.222-.672 1.474 0z" transform="translate(5)"/>
            <path fill="#2E5ACF" d="M22.946 19.084l.792 2c.037.097.136.163.247.167l2.307.076c.255.009.36.306.159.451l-1.818 1.313c-.088.063-.125.17-.095.268l.635 2.047c.07.228-.205.411-.417.28l-1.915-1.19c-.092-.057-.213-.057-.305 0l-1.915 1.19c-.212.131-.487-.052-.416-.28l.634-2.047c.03-.098-.007-.205-.095-.268l-1.818-1.313c-.2-.145-.096-.442.159-.451l2.307-.076c.111-.004.21-.07.247-.167l.792-2c.088-.221.427-.221.515 0z" transform="translate(5)"/>
            <path fill="#E5A32E" d="M28.614 31.702c.608.4 1.394-.16 1.193-.847l-.33-1.13c-.354.617-.75 1.206-1.182 1.767l.32.21z" transform="translate(5)"/>
            <path fill="#000" d="M44.65 22.993c1.134-1.7.925-3.911-.51-5.379-.632-.647-.896-1.555-.707-2.43.43-1.987-.582-3.975-2.461-4.836-.828-.38-1.41-1.134-1.556-2.017-.333-2.003-2.012-3.5-4.082-3.64-.912-.06-1.733-.558-2.197-1.33-1.05-1.75-3.166-2.553-5.149-1.95-.873.264-1.822.09-2.538-.465-1.626-1.261-3.897-1.261-5.523 0-.716.556-1.665.73-2.539.464-1.981-.602-4.1.201-5.15 1.951-.462.772-1.283 1.27-2.195 1.33-2.07.14-3.748 1.637-4.08 3.64-.147.884-.73 1.637-1.557 2.017-1.88.861-2.892 2.85-2.462 4.835.19.875-.075 1.785-.707 2.431-1.435 1.468-1.644 3.68-.51 5.38.501.749.59 1.688.239 2.515-.796 1.875-.174 4.012 1.512 5.196.742.522 1.171 1.368 1.15 2.262-.05 2.03 1.32 3.803 3.328 4.311.593.15 1.108.486 1.478.944l-4.62 10.911c-.649 1.53.817 3.104 2.433 2.62l5.059-1.52c.147-.043.307.021.38.154l2.478 4.573c.793 1.463 2.967 1.36 3.614-.168l4.816-11.372c.062-.003.126-.003.19 0l4.814 11.372c.649 1.53 2.822 1.628 3.614.168l2.48-4.573c.072-.133.232-.197.38-.154l5.057 1.52c1.617.485 3.082-1.09 2.434-2.62l-4.62-10.91c.369-.458.884-.794 1.477-.945 2.009-.508 3.377-2.281 3.328-4.311-.021-.894.409-1.74 1.151-2.262 1.686-1.184 2.308-3.32 1.512-5.196-.35-.827-.261-1.767.239-2.516zm-28.421 31.17c-.106.25-.455.265-.583.028l-2.479-4.573c-.449-.827-1.438-1.227-2.353-.954l-5.058 1.52c-.263.078-.498-.175-.394-.423l4.1-9.681c.925 1.24 2.47 1.93 4.099 1.745.908-.105 1.808.236 2.408.912.87.98 2.096 1.5 3.347 1.5.396 0 .794-.054 1.184-.16l-4.271 10.087zm23.392-3.98l-5.058-1.518c-.915-.274-1.905.126-2.352.954l-2.48 4.572c-.128.236-.478.221-.583-.026l-4.27-10.086c1.624.44 3.385-.053 4.53-1.343.6-.674 1.5-1.016 2.41-.912 1.627.186 3.173-.505 4.098-1.744l4.098 9.68c.105.25-.132.502-.394.423h.001zm3.625-28.087c-.804 1.204-.947 2.715-.383 4.042.494 1.167.108 2.498-.941 3.234-1.193.84-1.885 2.197-1.85 3.634.031 1.264-.821 2.367-2.071 2.684-1.17.296-2.153 1.041-2.742 2.047l-.004.01c-.126.214-.233.44-.32.677-.439 1.19-1.64 1.918-2.924 1.77-1.459-.166-2.905.382-3.869 1.467-.847.954-2.236 1.207-3.38.618-.387-.202-.799-.34-1.22-.42l-.01-.003c-.557-.105-1.131-.105-1.69 0l-.005.002c-.421.08-.834.22-1.223.42-1.142.591-2.532.337-3.379-.617-.85-.956-2.074-1.496-3.352-1.496-.172 0-.345.01-.517.03-1.283.146-2.485-.582-2.923-1.77-.087-.237-.195-.463-.32-.677l-.006-.01c-.588-1.007-1.57-1.752-2.74-2.048-1.25-.317-2.102-1.42-2.072-2.684.036-1.436-.657-2.794-1.85-3.634-1.049-.736-1.435-2.067-.94-3.234.564-1.328.42-2.838-.383-4.042-.706-1.058-.576-2.435.317-3.348 1.016-1.04 1.44-2.498 1.136-3.904-.268-1.236.362-2.475 1.532-3.01 1.33-.61 2.265-1.82 2.501-3.24.207-1.247 1.251-2.179 2.54-2.266 1.466-.098 2.785-.896 3.528-2.136.653-1.09 1.972-1.59 3.206-1.215 1.402.426 2.927.147 4.078-.746 1.012-.785 2.426-.785 3.438 0 1.15.893 2.675 1.172 4.078.746 1.235-.375 2.552.124 3.206 1.215.742 1.24 2.062 2.038 3.528 2.136 1.288.087 2.333 1.019 2.54 2.267.235 1.417 1.17 2.63 2.5 3.238 1.17.536 1.8 1.775 1.533 3.01-.304 1.407.12 2.867 1.136 3.905.892.913 1.022 2.29.317 3.348z" transform="translate(5)"/>
            <path fill="#000" d="M6.807 21.014c.459.055.878-.265.934-.714.926-7.363 7.353-12.915 14.948-12.915 7.599 0 14.024 5.556 14.947 12.922.053.415.415.72.832.72.034 0 .068-.002.103-.006.46-.056.787-.464.73-.914-1.026-8.188-8.167-14.362-16.612-14.362-8.441 0-15.583 6.171-16.612 14.354-.056.45.27.86.73.915zm31.764 2.201c-.458-.054-.878.265-.935.715-.922 7.367-7.348 12.922-14.947 12.922-7.596 0-14.023-5.553-14.948-12.915-.057-.45-.474-.77-.934-.715-.46.056-.787.465-.73.914 1.029 8.186 8.17 14.357 16.612 14.357 8.445 0 15.587-6.175 16.612-14.364.056-.45-.27-.859-.73-.914z" transform="translate(5)"/>
            <path fill="#000" d="M34.528 18.733c-.213-.641-.796-1.072-1.484-1.096l-6.575-.23-2.255-6.046c-.237-.633-.836-1.043-1.525-1.043-.69 0-1.288.41-1.525 1.043l-2.255 6.046-6.575.23c-.69.024-1.272.455-1.485 1.096-.213.642 0 1.325.543 1.742l5.18 3.966-1.807 6.188c-.19.65.048 1.325.606 1.721.557.396 1.288.41 1.86.032l5.458-3.593 5.457 3.593c.572.377 1.302.364 1.86-.033.558-.396.796-1.07.606-1.72l-1.806-6.188 5.18-3.966c.542-.416.756-1.1.542-1.74v-.002zm-6.785 4.438c-.522.4-.742 1.063-.56 1.686l1.776 6.083-5.364-3.532c-.275-.181-.59-.271-.906-.271-.316 0-.632.09-.907.271l-5.364 3.532 1.776-6.083c.182-.623-.038-1.286-.56-1.686l-5.092-3.9 6.462-.227c.664-.023 1.24-.431 1.467-1.041l2.218-5.943 2.217 5.943c.227.61.802 1.018 1.466 1.04l6.462.228-5.092 3.9h.001z" transform="translate(5)"/>
        </g>
    </g>
</svg>
