<svg xmlns="http://www.w3.org/2000/svg" width="56" height="52" viewBox="0 0 56 52">
    <g fill="none" fill-rule="evenodd">
        <g fill-rule="nonzero">
            <g>
                <g>
                    <g>
                        <path fill="#B500D6" d="M27.387 50.259L1.191 16.627c-.105-.136-.117-.32-.03-.467L9.919 1.3c.076-.13.214-.208.365-.208h34.874c.15 0 .29.08.365.208l8.759 14.861c.086.148.074.332-.031.467L28.055 50.26c-.169.217-.5.217-.668 0z" transform="translate(-83 -400) translate(51 84) translate(16 298) translate(16 18)"/>
                        <path fill="#000" fill-opacity=".1" d="M54.282 16.16L45.523 1.3c-.075-.13-.215-.208-.365-.208h-8.357l9.024 15.312-18.327 33.954c.179.11.42.079.557-.098l26.197-33.632c.104-.136.117-.32.03-.467z" transform="translate(-83 -400) translate(51 84) translate(16 298) translate(16 18)"/>
                        <path fill="#000" d="M52.902 11.652c-.307-.52-.982-.695-1.508-.392-.526.305-.704.972-.397 1.493l1.5 2.544H38.304l7.096-12.04 2.078 3.526c.307.521.982.697 1.508.393.527-.303.703-.972.396-1.493L46.475.748C46.203.287 45.698 0 45.16 0H10.283c-.54 0-1.045.287-1.316.748L.21 15.609c-.314.534-.272 1.195.11 1.685l15.293 19.635c.217.278.543.425.873.425.235 0 .472-.075.673-.227.48-.37.571-1.054.2-1.532L3.247 17.479h14.946l7.261 28.513-3.844-4.935c-.37-.477-1.064-.566-1.545-.198-.483.368-.572 1.054-.2 1.531l6.648 8.536c.29.374.731.587 1.207.587.476 0 .916-.214 1.208-.587l26.196-33.632c.38-.49.424-1.15.109-1.683l-2.332-3.958v-.001zm-9.42-9.47l-7.07 11.997-6.807-11.995h13.877v-.001zm-8.965 13.113H20.926L27.72 3.321l6.796 11.977v-.003zm-31.57 0l7.095-12.038 7.095 12.04H2.947v-.002zM11.96 2.183h13.877L19.03 14.179l-7.07-11.995v-.001zm15.76 43.777l-7.253-28.48h14.507L27.72 45.96zm2.266.033l7.262-28.514h14.946L29.987 45.993z" transform="translate(-83 -400) translate(51 84) translate(16 298) translate(16 18)"/>
                    </g>
                </g>
            </g>
        </g>
    </g>
</svg>
