<svg xmlns="http://www.w3.org/2000/svg" width="56" height="47" viewBox="0 0 56 47">
    <g fill="none" fill-rule="evenodd">
        <g fill-rule="nonzero">
            <g>
                <g>
                    <g>
                        <g>
                            <path fill="#FFF7BF" d="M17.257 17.256L21.511 10.527 13.816 5.669 10.795 12.676zM37.487 17.256L43.949 12.676 40.928 5.669 33.233 10.527z" transform="translate(-82 -513) translate(51 84) translate(16 408) translate(15 21) translate(.771 .014)"/>
                            <path fill="#D84758" d="M6.595 33.844l.626 9.404c13.373 1.815 26.93 1.815 40.302 0l.626-9.404" transform="translate(-82 -513) translate(51 84) translate(16 408) translate(15 21) translate(.771 .014)"/>
                            <path fill="#FFC152" d="M25.111 35.248c6.763.102 13.53-.254 20.257-1.067l2.781-.337.006-.068 5.334-27.861-16.002 11.341-10.115-16-10.115 16L1.256 5.915l5.333 27.86.006.07 2.782.336c1.428.172 2.859.325 4.29.456" transform="translate(-82 -513) translate(51 84) translate(16 408) translate(15 21) translate(.771 .014)"/>
                            <path fill="#FAF7F5" d="M27.372 27.737L22.012 21.727 27.372 13.204 32.732 21.727z" transform="translate(-82 -513) translate(51 84) translate(16 408) translate(15 21) translate(.771 .014)"/>
                            <path fill="#000" d="M27.372 28.992c-.358 0-.699-.153-.937-.42l-5.36-6.01c-.372-.417-.424-1.03-.126-1.504l5.36-8.522c.23-.366.632-.587 1.063-.587.432 0 .833.221 1.063.587l5.36 8.522c.298.474.247 1.087-.126 1.504l-5.36 6.01c-.238.267-.579.42-.937.42zm-3.794-7.396l3.794 4.254 3.795-4.254-3.795-6.033-3.794 6.033zM19.42 36.31c-.516 0-.993-.331-1.175-.814-.182-.485-.041-1.044.347-1.386.411-.36 1.026-.411 1.49-.123.447.277.675.82.565 1.332-.123.57-.643.99-1.227.99z" transform="translate(-82 -513) translate(51 84) translate(16 408) translate(15 21) translate(.771 .014)"/>
                            <path fill="#000" d="M54.168 4.859c-.431-.277-.987-.265-1.405.031l-8.207 5.817-2.482-5.55c-.15-.336-.439-.589-.792-.692-.352-.104-.732-.048-1.04.153l-6.555 4.277-5.254-8.31C28.203.22 27.803 0 27.373 0c-.432 0-.832.22-1.062.585l-5.254 8.31-6.555-4.277c-.308-.201-.688-.257-1.04-.153-.353.103-.642.356-.792.692l-2.482 5.55L1.982 4.89c-.418-.296-.975-.308-1.406-.031-.43.277-.65.789-.554 1.292l5.32 27.792.627 9.389c.04.595.492 1.08 1.084 1.16 6.741.915 13.53 1.372 20.32 1.372 6.788 0 13.577-.457 20.319-1.371.59-.08 1.044-.566 1.084-1.161l.625-9.389 5.32-27.792c.097-.503-.122-1.015-.553-1.292zM40.382 7.525l2.085 4.662-4.626 3.28-2.812-4.449 5.353-3.493zm-26.02 0l5.353 3.493-2.812 4.448-4.626-3.279 2.085-4.662zM47.08 32.709l-1.864.225c-6.64.803-13.399 1.16-20.087 1.059h-.019c-.685 0-1.245.55-1.255 1.236-.01.693.543 1.264 1.237 1.274.752.012 1.504.017 2.257.017 6.061 0 12.163-.366 18.168-1.093l1.278-.154-.458 6.865c-12.591 1.62-25.34 1.62-37.932 0l-.458-6.865 1.278.154c1.433.174 2.889.328 4.327.46.689.065 1.301-.444 1.365-1.135.063-.69-.445-1.302-1.136-1.365-1.414-.13-2.845-.282-4.255-.453l-1.864-.225L3.076 8.744 16.53 18.28c.28.2.631.275.97.208.338-.067.633-.27.817-.561l9.054-14.322 9.054 14.322c.184.291.48.494.818.56.338.068.688-.007.97-.207l13.455-9.536-4.588 23.965z" transform="translate(-82 -513) translate(51 84) translate(16 408) translate(15 21) translate(.771 .014)"/>
                        </g>
                    </g>
                </g>
            </g>
        </g>
    </g>
</svg>
