<svg xmlns="http://www.w3.org/2000/svg" width="56" height="56" viewBox="0 0 56 56">
    <g fill="none" fill-rule="evenodd">
        <g>
            <g>
                <g>
                    <g>
                        <path d="M0 0H56V56H0z" transform="translate(-82 -289) translate(51 84) translate(16 189) translate(15 16)"/>
                        <g fill-rule="nonzero">
                            <path fill="#EAB14D" d="M25.568 54.292l9.28-5.358c5.469-3.157 8.838-8.993 8.838-15.308v-22.87c0-1.178-.92-2.157-2.096-2.217-9.944-.506-15.345-4.556-17.756-7.05-.862-.891-2.3-.891-3.162 0-2.41 2.494-7.81 6.544-17.755 7.05C1.74 8.6.82 9.58.82 10.756v22.87c0 6.315 3.369 12.15 8.838 15.308l9.28 5.358c2.051 1.184 4.578 1.184 6.629 0z" transform="translate(-82 -289) translate(51 84) translate(16 189) translate(15 16) translate(6)"/>
                            <path fill="#E7A52E" d="M15.846 46.448c-4.177 0-8.143-.902-11.714-2.521 1.442 2.01 3.312 3.729 5.527 5.007l9.28 5.358c2.051 1.184 4.578 1.184 6.629 0l9.28-5.358c5.469-3.157 8.838-8.993 8.838-15.308V23.65c-2.598 13.001-14.074 22.798-27.84 22.798z" transform="translate(-82 -289) translate(51 84) translate(16 189) translate(15 16) translate(6)"/>
                            <path fill="#FFE07D" d="M22.253 50.76c-.387 0-.769-.102-1.104-.295l-9.28-5.358c-4.09-2.36-6.63-6.76-6.63-11.481V13.78c0-.555.413-1.026.964-1.095 7.365-.927 12.317-3.666 15.368-6.073.4-.315.964-.315 1.364 0 3.052 2.407 8.004 5.146 15.37 6.073.55.069.962.54.962 1.095v19.846c0 4.721-2.54 9.12-6.629 11.481l-9.28 5.358c-.335.194-.717.296-1.105.296z" transform="translate(-82 -289) translate(51 84) translate(16 189) translate(15 16) translate(6)"/>
                            <path fill="#FFD064" d="M12.09 42.692c-1.168 0-2.32-.072-3.45-.21.92 1.027 2.004 1.918 3.229 2.625l9.28 5.358c.335.194.717.296 1.104.296.388 0 .77-.103 1.105-.296l9.28-5.358c4.089-2.36 6.629-6.76 6.629-11.481v-11.09C35.737 34.2 24.905 42.692 12.089 42.692z" transform="translate(-82 -289) translate(51 84) translate(16 189) translate(15 16) translate(6)"/>
                            <path fill="#95D6A4" d="M18.939 38.512c-.848 0-1.697-.324-2.344-.97l-6.63-6.63c-1.294-1.294-1.294-3.393 0-4.688 1.295-1.294 3.394-1.294 4.688 0l4.286 4.286 10.914-10.915c1.295-1.294 3.393-1.294 4.688 0 1.294 1.295 1.294 3.393 0 4.688L21.282 37.54c-.647.648-1.495.971-2.343.971z" transform="translate(-82 -289) translate(51 84) translate(16 189) translate(15 16) translate(6)"/>
                            <path fill="#78C2A4" d="M34.541 19.595c-.335-.335-.725-.583-1.141-.745.462 1.188.214 2.588-.745 3.547L19.397 35.655c-.647.647-1.496.971-2.344.971-.848 0-1.697-.324-2.344-.97l1.886 1.885c.647.648 1.496.971 2.344.971.848 0 1.696-.324 2.344-.97l13.258-13.26c1.295-1.294 1.295-3.392 0-4.687z" transform="translate(-82 -289) translate(51 84) translate(16 189) translate(15 16) translate(6)"/>
                            <path fill="#000" d="M43.687 19.5c.453 0 .82-.366.82-.82v-7.924c0-1.62-1.263-2.954-2.875-3.036-9.729-.495-14.958-4.474-17.208-6.801C23.85.326 23.08 0 22.254 0c-.827 0-1.598.326-2.17.919-2.252 2.327-7.48 6.306-17.209 6.801C1.263 7.802 0 9.136 0 10.756v22.87c0 6.587 3.544 12.725 9.249 16.02l9.28 5.356c1.149.664 2.437.996 3.725.996 1.287 0 2.575-.332 3.724-.996l9.28-5.357c5.705-3.294 9.249-9.432 9.249-16.018V22.509c0-.453-.367-.82-.82-.82-.453 0-.82.367-.82.82v11.118c0 6.002-3.23 11.596-8.43 14.598l-9.28 5.357c-1.79 1.034-4.016 1.034-5.807 0l-9.28-5.357c-5.2-3.002-8.43-8.596-8.43-14.598v-22.87c0-.747.58-1.36 1.319-1.398 10.29-.524 15.885-4.799 18.304-7.3.26-.27.612-.418.99-.418s.73.148.991.418c2.42 2.501 8.014 6.776 18.304 7.3.74.037 1.318.651 1.318 1.397v7.924c0 .454.368.82.82.82z" transform="translate(-82 -289) translate(51 84) translate(16 189) translate(15 16) translate(6)"/>
                            <path fill="#000" d="M5.24 21.688c-.453 0-.82.367-.82.82v11.119c0 5.012 2.697 9.684 7.038 12.191l9.28 5.357c.462.266.985.406 1.515.406.53 0 1.054-.14 1.515-.406l9.281-5.357c4.341-2.507 7.038-7.179 7.038-12.191V13.779c0-.968-.723-1.789-1.68-1.908-7.358-.926-12.198-3.721-14.964-5.904-.7-.55-1.679-.55-2.38.001C18.298 8.15 13.458 10.945 6.1 11.87c-.958.12-1.681.941-1.681 1.91v4.9c0 .454.367.82.82.82.453 0 .82-.366.82-.82v-4.9c0-.143.105-.264.245-.282 7.732-.972 12.846-3.931 15.773-6.241.103-.081.247-.082.35-.001 2.928 2.311 8.042 5.27 15.775 6.243.139.017.244.138.244.28v19.848c0 4.428-2.383 8.555-6.218 10.77l-9.28 5.357c-.424.245-.967.244-1.39 0l-9.28-5.357c-3.836-2.215-6.218-6.342-6.218-10.77V22.509c0-.454-.368-.82-.82-.82z" transform="translate(-82 -289) translate(51 84) translate(16 189) translate(15 16) translate(6)"/>
                            <path fill="#000" d="M12.31 26.074c.666 0 1.292.26 1.763.73l4.286 4.286c.32.32.84.32 1.16 0l4.696-4.696c.32-.32.32-.84 0-1.16-.32-.32-.84-.32-1.16 0l-4.116 4.115-3.706-3.705c-.78-.78-1.819-1.21-2.923-1.21-1.105 0-2.143.43-2.924 1.21-.78.781-1.211 1.82-1.211 2.924 0 1.105.43 2.144 1.211 2.924l6.629 6.629c.78.781 1.819 1.212 2.924 1.212s2.144-.43 2.923-1.212L35.12 24.863c.782-.78 1.212-1.82 1.212-2.924 0-1.104-.43-2.143-1.211-2.924-.781-.78-1.82-1.21-2.924-1.21-1.104 0-2.142.43-2.923 1.21l-3.512 3.512c-.32.32-.32.84 0 1.16.32.32.84.32 1.16 0l3.512-3.512c.47-.471 1.097-.73 1.763-.73.667 0 1.293.259 1.764.73.471.471.73 1.098.73 1.764 0 .666-.259 1.292-.73 1.764L20.7 36.962c-.47.47-1.095.73-1.762.73-.666 0-1.293-.26-1.763-.73l-6.63-6.63c-.471-.471-.73-1.097-.73-1.764 0-.666.26-1.292.73-1.764.471-.47 1.097-.73 1.764-.73z" transform="translate(-82 -289) translate(51 84) translate(16 189) translate(15 16) translate(6)"/>
                        </g>
                    </g>
                </g>
            </g>
        </g>
    </g>
</svg>
